<?xml version="1.0" encoding="UTF-8"?>
<svg xmlns="http://www.w3.org/2000/svg" xmlns:xlink="http://www.w3.org/1999/xlink" viewBox="0 0 192 192" width="192px" height="192px">
<g id="surface1740772">
<path style=" stroke:none;fill-rule:nonzero;fill:rgb(0%,0%,0%);fill-opacity:1;" d="M 80 16 L 72 24 L 40 24 C 35.199219 24 32 27.199219 32 32 C 32 36.800781 35.199219 40 40 40 L 152 40 C 156.800781 40 160 36.800781 160 32 C 160 27.199219 156.800781 24 152 24 L 120 24 L 112 16 Z M 40 56 L 40 160 C 40 168.800781 47.199219 176 56 176 L 136 176 C 144.800781 176 152 168.800781 152 160 L 152 56 Z M 72 72 C 76.800781 72 80 75.199219 80 80 L 80 152 C 80 156.800781 76.800781 160 72 160 C 67.199219 160 64 156.800781 64 152 L 64 80 C 64 75.199219 67.199219 72 72 72 Z M 120 72 C 124.800781 72 128 75.199219 128 80 L 128 152 C 128 156.800781 124.800781 160 120 160 C 115.199219 160 112 156.800781 112 152 L 112 80 C 112 75.199219 115.199219 72 120 72 Z M 120 72 "/>
</g>
</svg>
